<svg width="304" height="509" viewBox="0 0 304 509" fill="none" xmlns="http://www.w3.org/2000/svg">
<g opacity="0.04">
<path d="M0.321808 1.11887C45.3448 1.11887 72.597 20.1839 88.6439 44.6754C104.736 69.2361 109.616 99.3503 109.616 121.416C109.616 154.423 124.943 178.176 141.436 203.737C143.081 206.285 144.737 208.852 146.391 211.447C164.649 240.104 182.815 272.524 182.815 323.777C182.815 419.842 111.148 507.241 1.42401 507.241C-108.136 507.241 -181.881 419.164 -181.881 323.265C-181.881 272.093 -163.744 239.725 -145.514 211.114C-143.863 208.522 -142.21 205.96 -140.568 203.415C-124.1 177.895 -108.797 154.179 -108.797 121.224C-108.797 99.1931 -103.926 69.127 -87.8598 44.6056C-71.8391 20.1534 -44.6307 1.11887 0.321808 1.11887Z" fill="#CE2121" stroke="#CE2121" stroke-width="2.23774"/>
<path d="M168.165 134.077C201.375 134.077 221.444 148.106 233.261 166.11C245.123 184.183 248.726 206.358 248.726 222.619C248.726 247.085 260.114 264.698 272.311 283.564C273.529 285.448 274.756 287.345 275.979 289.262C289.477 310.407 302.881 334.29 302.881 372.055C302.881 442.849 249.978 507.241 168.981 507.241C88.1051 507.241 33.6628 442.346 33.6628 371.674C33.6628 333.972 47.0453 310.127 60.5199 289.016C61.7415 287.102 62.9656 285.208 64.1816 283.328C76.3593 264.491 87.7285 246.905 87.7285 222.477C87.7285 206.242 91.3262 184.103 103.17 166.059C114.969 148.084 135.007 134.077 168.165 134.077Z" fill="#FBBC1A" stroke="#FBBC1A" stroke-width="2.23774"/>
<path d="M87.1691 222.472C87.1691 201.872 92.9334 171.802 113.909 152.458C119.695 170.7 129.978 186.64 140.8 203.416L140.825 203.454C160.605 234.12 182.276 267.724 182.276 323.778C182.276 389.893 148.415 451.933 91.61 484.35C54.9792 459.125 33.1034 416.549 33.1034 371.671C33.1034 330.389 49.0882 305.645 63.6992 283.037L63.7199 283.005C75.8987 264.163 87.1691 246.726 87.1691 222.472Z" fill="#FF871E" stroke="#FF871E" stroke-width="1.11887"/>
<path fill-rule="evenodd" clip-rule="evenodd" d="M2.61265 69.0824C1.60448 66.5897 -2.55209 66.5897 -3.56881 69.0824C-15.919 99.394 -45.6517 120.769 -80.3185 120.769C-81.4292 120.769 -82.2964 121.747 -82.117 122.841C-75.598 161.964 -41.6788 191.762 -0.745071 191.762C40.1844 191.762 74.2361 161.963 80.9216 122.839C81.1096 121.746 80.2424 120.768 79.136 120.768C44.4692 120.768 14.8304 99.3935 2.61265 69.0824Z" fill="#FFDD2D"/>
</g>
</svg>
